# WaveFront *.obj file (generated by CINEMA 4D)

mtllib ./group3.mtl

v 471.15878295898438 3.90625 -270.02450561523438
v 471.15878295898438 559.16339111328125 -270.02450561523438
v 437.7821044921875 3.90625 -302.90155029296875
v 437.7821044921875 559.16339111328125 -302.90155029296875
v 454.470458984375 559.16339111328125 -286.46304321289062
v 454.470458984375 3.90625 -286.46304321289062
v 437.7821044921875 281.53482055664062 -302.90155029296875
v 471.15878295898438 281.53482055664062 -270.02450561523438
v 437.883544921875 3.90625 -303.00457763671875
v 471.26025390625 3.90625 -270.12753295898438
v 454.5718994140625 3.90625 -286.5660400390625
v 437.883544921875 559.16339111328125 -303.00457763671875
v 437.883544921875 281.53482055664062 -303.00457763671875
v 471.26025390625 559.16339111328125 -270.12753295898438
v 454.5718994140625 559.16339111328125 -286.5660400390625
v 471.26025390625 281.53482055664062 -270.12753295898438
# 16 vertices

vn -0.70175850391388 0 0.7124148607254
vn 0 -1 0
vn -0.7124148607254 0 -0.70175850391388
vn 0 1 0
vn 0.7124148607254 0 0.70175850391388
vn 0.70175850391388 0 -0.7124148607254
# 6 normals

vt 0.00052056222921 0.54344290494919 0
vt 0.49952787160873 0.50127738714218 0
vt 0.99853515625 0.54344290494919 0
vt 0.00052056222921 0.50127738714218 0
vt 0.99853515625 0.50127738714218 0
vt 0.99853515625 0.58560848236084 0
vt 0.49952787160873 0.58560848236084 0
vt 0.00052056222921 0.58560848236084 0
vt 0.04268610104918 0.00153768062592 0
vt 0.04268610104918 0.001797914505 0
vt 0.00052056222921 0.001797914505 0
vt 0.00052056222921 0.00153768062592 0
vt 0.08485163748264 0.00153768062592 0
vt 0.08485163748264 0.001797914505 0
vt 0.00052056222921 0 0
vt 0.00052056222921 0.49900734424591 0
vt 0.00026028111461 0.49900734424591 0
vt 0.00026028111461 0 0
vt 0.00026028111461 0.99801456928253 0
vt 0.00052056222921 0.99801456928253 0
vt 0.00052056222921 0.00026035308838 0
vt 0.04268610104918 0 0
vt 0.04268610104918 0.00026035308838 0
vt 0.08485163748264 0 0
vt 0.08485163748264 0.00026035308838 0
vt 0 0 0
vt 0 0.49900734424591 0
vt 0 0.99801456928253 0
vt 0.49952787160873 0.00307536125183 0
vt 0.00052056222921 0.04524087905884 0
vt 0.99853515625 0.04524087905884 0
vt 0.00052056222921 0.00307536125183 0
vt 0.99853515625 0.00307536125183 0
vt 0.99853515625 0.08740639686584 0
vt 0.49952787160873 0.08740639686584 0
vt 0.00052056222921 0.08740639686584 0
# 36 texture coordinates

o object_88
usemtl Default
f 6/3/1 8/2/1 5/1/1
f 8/2/1 2/4/1 5/1/1
f 6/3/1 1/5/1 8/2/1
f 7/7/1 3/6/1 6/3/1
f 7/7/1 5/1/1 4/8/1
f 6/3/1 5/1/1 7/7/1
f 3/12/2 9/11/2 11/10/2 6/9/2
f 10/14/2 1/13/2 6/9/2 11/10/2
f 12/18/3 13/17/3 7/16/3 4/15/3
f 3/20/3 7/16/3 13/17/3 9/19/3
f 15/23/4 5/22/4 2/15/4 14/21/4
f 5/22/4 15/23/4 12/25/4 4/24/4
f 16/27/5 8/17/5 1/18/5 10/26/5
f 8/17/5 16/27/5 14/28/5 2/19/5
f 11/31/6 15/30/6 16/29/6
f 16/29/6 15/30/6 14/32/6
f 11/31/6 16/29/6 10/33/6
f 13/35/6 11/31/6 9/34/6
f 13/35/6 12/36/6 15/30/6
f 11/31/6 13/35/6 15/30/6

v -271.45040893554688 3.90625 471.6090087890625
v -271.45040893554688 559.16339111328125 471.6090087890625
v -304.82708740234375 3.90625 438.73202514648438
v -304.82708740234375 559.16339111328125 438.73202514648438
v -288.13876342773438 559.16339111328125 455.1705322265625
v -288.13876342773438 3.90625 455.1705322265625
v -304.82708740234375 281.53482055664062 438.73202514648438
v -271.45040893554688 281.53482055664062 471.6090087890625
v -304.72564697265625 3.90625 438.62890625
v -271.34890747070312 3.90625 471.50601196289062
v -288.03729248046875 3.90625 455.06753540039062
v -304.72564697265625 559.16339111328125 438.62890625
v -304.72564697265625 281.53482055664062 438.62890625
v -271.34890747070312 559.16339111328125 471.50601196289062
v -288.03729248046875 559.16339111328125 455.06753540039062
v -271.34890747070312 281.53482055664062 471.50601196289062
# 16 vertices

# 0 normal

# 0 texture coordinate

o object_80
usemtl Default
f 24/2/1 22/3/1 17/5/1
f 24/2/1 18/4/1 21/1/1
f 21/1/1 22/3/1 24/2/1
f 21/1/1 20/8/1 23/7/1 22/3/1
f 19/6/1 22/3/1 23/7/1
f 27/10/2 22/9/2 19/12/2 25/11/2
f 22/9/2 27/10/2 26/14/2 17/13/2
f 28/18/3 29/17/3 23/16/3 20/15/3
f 19/20/3 23/16/3 29/17/3 25/19/3
f 18/15/4 30/21/4 31/23/4 21/22/4
f 28/25/4 20/24/4 21/22/4 31/23/4
f 17/18/5 26/26/5 32/27/5 24/17/5
f 30/28/5 18/19/5 24/17/5 32/27/5
f 32/29/6 26/33/6 27/31/6
f 32/29/6 31/30/6 30/32/6
f 31/30/6 32/29/6 27/31/6
f 31/30/6 27/31/6 29/35/6 28/36/6
f 25/34/6 29/35/6 27/31/6

v -454.25335693359375 3.90625 657.190185546875
v -454.25335693359375 559.16339111328125 657.190185546875
v -487.63003540039062 3.90625 624.3131103515625
v -487.63003540039062 559.16339111328125 624.3131103515625
v -470.94171142578125 559.16339111328125 640.7515869140625
v -470.94171142578125 3.90625 640.7515869140625
v -487.63003540039062 281.53482055664062 624.3131103515625
v -454.25335693359375 281.53482055664062 657.190185546875
v -487.52859497070312 3.90625 624.21014404296875
v -454.15188598632812 3.90625 657.08709716796875
v -470.8402099609375 3.90625 640.64862060546875
v -487.52859497070312 559.16339111328125 624.21014404296875
v -487.52859497070312 281.53482055664062 624.21014404296875
v -454.15188598632812 559.16339111328125 657.08709716796875
v -470.8402099609375 559.16339111328125 640.64862060546875
v -454.15188598632812 281.53482055664062 657.08709716796875
# 16 vertices

# 0 normal

# 0 texture coordinate

o object_79
usemtl Default
f 40/29/1 38/31/1 33/33/1
f 40/29/1 34/32/1 37/30/1
f 37/30/1 38/31/1 40/29/1
f 38/31/1 37/30/1 39/35/1
f 39/35/1 37/30/1 36/36/1
f 35/34/1 38/31/1 39/35/1
f 43/10/2 38/9/2 35/12/2 41/11/2
f 38/9/2 43/10/2 42/14/2 33/13/2
f 44/18/3 45/17/3 39/16/3 36/15/3
f 35/20/3 39/16/3 45/17/3 41/19/3
f 34/15/4 46/21/4 47/23/4 37/22/4
f 44/25/4 36/24/4 37/22/4 47/23/4
f 48/27/5 40/17/5 33/18/5 42/26/5
f 40/17/5 48/27/5 46/28/5 34/19/5
f 48/2/6 42/5/6 43/3/6
f 48/2/6 47/1/6 46/4/6
f 47/1/6 48/2/6 43/3/6
f 43/3/6 45/7/6 47/1/6
f 45/7/6 44/8/6 47/1/6
f 41/6/6 45/7/6 43/3/6

v -640.528564453125 3.90625 473.70352172851562
v -640.528564453125 559.16339111328125 473.70352172851562
v -673.9052734375 3.90625 440.826416015625
v -673.9052734375 559.16339111328125 440.826416015625
v -657.2169189453125 559.16339111328125 457.26492309570312
v -657.2169189453125 3.90625 457.26492309570312
v -673.9052734375 281.53482055664062 440.826416015625
v -640.528564453125 281.53482055664062 473.70352172851562
v -673.8038330078125 3.90625 440.72341918945312
v -640.42706298828125 3.90625 473.60052490234375
v -657.115478515625 3.90625 457.16192626953125
v -673.8038330078125 559.16339111328125 440.72341918945312
v -673.8038330078125 281.53482055664062 440.72341918945312
v -640.42706298828125 559.16339111328125 473.60052490234375
v -657.115478515625 559.16339111328125 457.16192626953125
v -640.42706298828125 281.53482055664062 473.60052490234375
# 16 vertices

# 0 normal

# 0 texture coordinate

o object_78
usemtl Default
f 56/2/1 54/3/1 49/5/1
f 56/2/1 50/4/1 53/1/1
f 53/1/1 54/3/1 56/2/1
f 53/1/1 52/8/1 55/7/1 54/3/1
f 51/6/1 54/3/1 55/7/1
f 59/10/2 54/9/2 51/12/2 57/11/2
f 54/9/2 59/10/2 58/14/2 49/13/2
f 60/18/3 61/17/3 55/16/3 52/15/3
f 51/20/3 55/16/3 61/17/3 57/19/3
f 50/15/4 62/21/4 63/23/4 53/22/4
f 60/25/4 52/24/4 53/22/4 63/23/4
f 49/18/5 58/26/5 64/27/5 56/17/5
f 62/28/5 50/19/5 56/17/5 64/27/5
f 64/29/6 58/33/6 59/31/6
f 64/29/6 63/30/6 62/32/6
f 63/30/6 64/29/6 59/31/6
f 63/30/6 59/31/6 61/35/6 60/36/6
f 57/34/6 61/35/6 59/31/6

v -823.33154296875 3.90625 659.28460693359375
v -823.33154296875 559.16339111328125 659.28460693359375
v -856.708251953125 3.90625 626.40753173828125
v -856.708251953125 559.16339111328125 626.40753173828125
v -840.0198974609375 559.16339111328125 642.84613037109375
v -840.0198974609375 3.90625 642.84613037109375
v -856.708251953125 281.53482055664062 626.40753173828125
v -823.33154296875 281.53482055664062 659.28460693359375
v -856.60675048828125 3.90625 626.30450439453125
v -823.23004150390625 3.90625 659.18157958984375
v -839.91839599609375 3.90625 642.74298095703125
v -856.60675048828125 559.16339111328125 626.30450439453125
v -856.60675048828125 281.53482055664062 626.30450439453125
v -823.23004150390625 559.16339111328125 659.18157958984375
v -839.91839599609375 559.16339111328125 642.74298095703125
v -823.23004150390625 281.53482055664062 659.18157958984375
# 16 vertices

# 0 normal

# 0 texture coordinate

o object_77
usemtl Default
f 70/31/1 72/29/1 69/30/1
f 72/29/1 66/32/1 69/30/1
f 70/31/1 65/33/1 72/29/1
f 71/35/1 67/34/1 70/31/1
f 71/35/1 69/30/1 68/36/1
f 70/31/1 69/30/1 71/35/1
f 75/10/2 70/9/2 67/12/2 73/11/2
f 70/9/2 75/10/2 74/14/2 65/13/2
f 76/18/3 77/17/3 71/16/3 68/15/3
f 67/20/3 71/16/3 77/17/3 73/19/3
f 66/15/4 78/21/4 79/23/4 69/22/4
f 76/25/4 68/24/4 69/22/4 79/23/4
f 80/27/5 72/17/5 65/18/5 74/26/5
f 72/17/5 80/27/5 78/28/5 66/19/5
f 75/3/6 79/1/6 80/2/6
f 80/2/6 79/1/6 78/4/6
f 75/3/6 80/2/6 74/5/6
f 77/7/6 75/3/6 73/6/6
f 77/7/6 76/8/6 79/1/6
f 75/3/6 77/7/6 79/1/6

v -881.1630859375 3.90625 651.23406982421875
v -881.1630859375 559.16339111328125 651.23406982421875
v -847.786376953125 3.90625 684.11114501953125
v -847.786376953125 559.16339111328125 684.11114501953125
v -864.4747314453125 559.16339111328125 667.67254638671875
v -864.4747314453125 3.90625 667.67254638671875
v -881.1630859375 281.53482055664062 651.23406982421875
v -847.786376953125 281.53482055664062 684.11114501953125
v -847.68487548828125 3.90625 684.00811767578125
v -881.06158447265625 3.90625 651.13104248046875
v -864.37322998046875 3.90625 667.56951904296875
v -847.68487548828125 559.16339111328125 684.00811767578125
v -847.68487548828125 281.53482055664062 684.00811767578125
v -881.06158447265625 559.16339111328125 651.13104248046875
v -864.37322998046875 559.16339111328125 667.56951904296875
v -881.06158447265625 281.53482055664062 651.13104248046875
# 16 vertices

# 0 normal

# 0 texture coordinate

o object_76
usemtl Default
f 87/29/1 81/33/1 86/31/1
f 87/29/1 85/30/1 82/32/1
f 88/35/1 87/29/1 86/31/1
f 87/29/1 88/35/1 85/30/1
f 88/35/1 84/36/1 85/30/1
f 83/34/1 88/35/1 86/31/1
f 91/10/2 89/11/2 83/12/2 86/9/2
f 86/9/2 81/13/2 90/14/2 91/10/2
f 92/18/5 84/15/5 88/16/5 93/17/5
f 83/20/5 89/19/5 93/17/5 88/16/5
f 95/23/4 94/21/4 82/15/4 85/22/4
f 85/22/4 84/24/4 92/25/4 95/23/4
f 96/27/3 90/26/3 81/18/3 87/17/3
f 87/17/3 82/19/3 94/28/3 96/27/3
f 96/2/6 91/3/6 90/5/6
f 96/2/6 94/4/6 95/1/6
f 93/7/6 91/3/6 96/2/6
f 96/2/6 95/1/6 93/7/6
f 93/7/6 95/1/6 92/8/6
f 89/6/6 91/3/6 93/7/6

v -698.360107421875 3.90625 465.6529541015625
v -698.360107421875 559.16339111328125 465.6529541015625
v -664.9833984375 3.90625 498.530029296875
v -664.9833984375 559.16339111328125 498.530029296875
v -681.6717529296875 559.16339111328125 482.0914306640625
v -681.6717529296875 3.90625 482.0914306640625
v -698.360107421875 281.53482055664062 465.6529541015625
v -664.9833984375 281.53482055664062 498.530029296875
v -664.8819580078125 3.90625 498.42691040039062
v -698.2586669921875 3.90625 465.54995727539062
v -681.5703125 3.90625 481.98843383789062
v -664.8819580078125 559.16339111328125 498.42691040039062
v -664.8819580078125 281.53482055664062 498.42691040039062
v -698.2586669921875 559.16339111328125 465.54995727539062
v -681.5703125 559.16339111328125 481.98843383789062
v -698.2586669921875 281.53482055664062 465.54995727539062
# 16 vertices

# 0 normal

# 0 texture coordinate

o object_75
usemtl Default
f 103/29/1 97/33/1 102/31/1
f 103/29/1 101/30/1 98/32/1
f 104/35/1 103/29/1 102/31/1
f 103/29/1 104/35/1 101/30/1
f 104/35/1 100/36/1 101/30/1
f 99/34/1 104/35/1 102/31/1
f 107/10/2 105/11/2 99/12/2 102/9/2
f 102/9/2 97/13/2 106/14/2 107/10/2
f 108/18/5 100/15/5 104/16/5 109/17/5
f 99/20/5 105/19/5 109/17/5 104/16/5
f 98/15/4 101/22/4 111/23/4 110/21/4
f 108/25/4 111/23/4 101/22/4 100/24/4
f 97/18/3 103/17/3 112/27/3 106/26/3
f 110/28/3 112/27/3 103/17/3 98/19/3
f 112/2/6 107/3/6 106/5/6
f 112/2/6 110/4/6 111/1/6
f 109/7/6 107/3/6 112/2/6
f 112/2/6 111/1/6 109/7/6
f 109/7/6 111/1/6 108/8/6
f 105/6/6 107/3/6 109/7/6

v -512.08489990234375 3.90625 649.1396484375
v -512.08489990234375 559.16339111328125 649.1396484375
v -478.70822143554688 3.90625 682.0166015625
v -478.70822143554688 559.16339111328125 682.0166015625
v -495.39657592773438 559.16339111328125 665.578125
v -495.39657592773438 3.90625 665.578125
v -512.08489990234375 281.53482055664062 649.1396484375
v -478.70822143554688 281.53482055664062 682.0166015625
v -478.60675048828125 3.90625 681.91363525390625
v -511.98342895507812 3.90625 649.03656005859375
v -495.29507446289062 3.90625 665.47515869140625
v -478.60675048828125 559.16339111328125 681.91363525390625
v -478.60675048828125 281.53482055664062 681.91363525390625
v -511.98342895507812 559.16339111328125 649.03656005859375
v -495.29507446289062 559.16339111328125 665.47515869140625
v -511.98342895507812 281.53482055664062 649.03656005859375
# 16 vertices

# 0 normal

# 0 texture coordinate

o object_74
usemtl Default
f 119/2/1 113/5/1 118/3/1
f 119/2/1 117/1/1 114/4/1
f 120/7/1 119/2/1 118/3/1
f 119/2/1 120/7/1 117/1/1
f 120/7/1 116/8/1 117/1/1
f 115/6/1 120/7/1 118/3/1
f 123/10/2 121/11/2 115/12/2 118/9/2
f 118/9/2 113/13/2 122/14/2 123/10/2
f 124/18/5 116/15/5 120/16/5 125/17/5
f 115/20/5 121/19/5 125/17/5 120/16/5
f 114/15/4 117/22/4 127/23/4 126/21/4
f 124/25/4 127/23/4 117/22/4 116/24/4
f 128/27/3 122/26/3 113/18/3 119/17/3
f 119/17/3 114/19/3 126/28/3 128/27/3
f 128/29/6 123/31/6 122/33/6
f 128/29/6 126/32/6 127/30/6
f 125/35/6 123/31/6 128/29/6
f 128/29/6 127/30/6 125/35/6
f 125/35/6 127/30/6 124/36/6
f 121/34/6 123/31/6 125/35/6

v -329.28192138671875 3.90625 463.55844116210938
v -329.28192138671875 559.16339111328125 463.55844116210938
v -295.90524291992188 3.90625 496.435546875
v -295.90524291992188 559.16339111328125 496.435546875
v -312.59359741210938 559.16339111328125 479.99703979492188
v -312.59359741210938 3.90625 479.99703979492188
v -329.28192138671875 281.53482055664062 463.55844116210938
v -295.90524291992188 281.53482055664062 496.435546875
v -295.80380249023438 3.90625 496.33255004882812
v -329.18048095703125 3.90625 463.4554443359375
v -312.49212646484375 3.90625 479.89404296875
v -295.80380249023438 559.16339111328125 496.33255004882812
v -295.80380249023438 281.53482055664062 496.33255004882812
v -329.18048095703125 559.16339111328125 463.4554443359375
v -312.49212646484375 559.16339111328125 479.89404296875
v -329.18048095703125 281.53482055664062 463.4554443359375
# 16 vertices

# 0 normal

# 0 texture coordinate

o object_73
usemtl Default
f 135/29/1 129/33/1 134/31/1
f 135/29/1 133/30/1 130/32/1
f 136/35/1 135/29/1 134/31/1
f 135/29/1 136/35/1 133/30/1
f 136/35/1 132/36/1 133/30/1
f 131/34/1 136/35/1 134/31/1
f 131/12/2 134/9/2 139/10/2 137/11/2
f 138/14/2 139/10/2 134/9/2 129/13/2
f 140/18/5 132/15/5 136/16/5 141/17/5
f 131/20/5 137/19/5 141/17/5 136/16/5
f 130/15/4 133/22/4 143/23/4 142/21/4
f 140/25/4 143/23/4 133/22/4 132/24/4
f 129/18/3 135/17/3 144/27/3 138/26/3
f 142/28/3 144/27/3 135/17/3 130/19/3
f 144/2/6 139/3/6 138/5/6
f 144/2/6 142/4/6 143/1/6
f 141/7/6 139/3/6 144/2/6
f 144/2/6 143/1/6 141/7/6
f 141/7/6 143/1/6 140/8/6
f 137/6/6 139/3/6 141/7/6

v 413.3272705078125 3.90625 -278.0750732421875
v 413.3272705078125 559.16339111328125 -278.0750732421875
v 430.015625 3.90625 -261.63653564453125
v 446.70394897460938 3.90625 -245.197998046875
v 446.70394897460938 559.16339111328125 -245.197998046875
v 430.015625 559.16339111328125 -261.63653564453125
v 413.3272705078125 281.53482055664062 -278.0750732421875
v 446.70394897460938 281.53482055664062 -245.197998046875
v 446.805419921875 3.90625 -245.30099487304688
v 413.4287109375 3.90625 -278.1781005859375
v 430.1170654296875 3.90625 -261.73953247070312
v 446.805419921875 559.16339111328125 -245.30099487304688
v 446.805419921875 281.53482055664062 -245.30099487304688
v 413.4287109375 559.16339111328125 -278.1781005859375
v 430.1170654296875 559.16339111328125 -261.73953247070312
v 413.4287109375 281.53482055664062 -278.1781005859375
# 16 vertices

# 0 normal

# 0 texture coordinate

o object_64
usemtl Default
f 147/3/1 150/1/1 151/2/1
f 151/2/1 150/1/1 146/4/1
f 147/3/1 151/2/1 145/5/1
f 152/7/1 147/3/1 148/6/1
f 152/7/1 149/8/1 150/1/1
f 147/3/1 152/7/1 150/1/1
f 155/10/2 153/11/2 148/12/2 147/9/2
f 147/9/2 145/13/2 154/14/2 155/10/2
f 156/18/5 149/15/5 152/16/5 157/17/5
f 148/20/5 153/19/5 157/17/5 152/16/5
f 159/23/4 158/21/4 146/15/4 150/22/4
f 150/22/4 149/24/4 156/25/4 159/23/4
f 160/27/3 154/26/3 145/18/3 151/17/3
f 151/17/3 146/19/3 158/28/3 160/27/3
f 160/29/6 159/30/6 156/36/6 157/35/6
f 160/29/6 158/32/6 159/30/6
f 155/31/6 154/33/6 160/29/6
f 157/35/6 153/34/6 155/31/6
f 155/31/6 160/29/6 157/35/6

