# WaveFront *.obj file (generated by CINEMA 4D)

mtllib ./1.mtl

v 836.7646484375 3.90625 -641.18670654296875
v 836.7646484375 559.16339111328125 -641.18670654296875
v 803.387939453125 3.90625 -674.06378173828125
v 803.387939453125 559.16339111328125 -674.06378173828125
v 820.0762939453125 559.16339111328125 -657.625244140625
v 820.0762939453125 3.90625 -657.625244140625
v 803.387939453125 281.53482055664062 -674.06378173828125
v 836.7646484375 281.53482055664062 -641.18670654296875
v 803.489501953125 3.90625 -674.16680908203125
v 836.8662109375 3.90625 -641.28973388671875
v 820.1778564453125 3.90625 -657.728271484375
v 803.489501953125 559.16339111328125 -674.16680908203125
v 803.489501953125 281.53482055664062 -674.16680908203125
v 836.8662109375 559.16339111328125 -641.28973388671875
v 820.1778564453125 559.16339111328125 -657.728271484375
v 836.8662109375 281.53482055664062 -641.28973388671875
# 16 vertices

vn -0.70175850391388 0 0.7124148607254
vn 0 -1 0
vn -0.7124148607254 0 -0.70175850391388
vn 0 1 0
vn 0.7124148607254 0 0.70175850391388
vn 0.70175850391388 0 -0.7124148607254
# 6 normals

vt 0.00052056222921 0.54344290494919 0
vt 0.49952787160873 0.50127738714218 0
vt 0.99853515625 0.54344290494919 0
vt 0.00052056222921 0.50127738714218 0
vt 0.99853515625 0.50127738714218 0
vt 0.99853515625 0.58560848236084 0
vt 0.49952787160873 0.58560848236084 0
vt 0.00052056222921 0.58560848236084 0
vt 0.00052056222921 0.001797914505 0
vt 0.00052056222921 0.00153768062592 0
vt 0.04268610104918 0.00153768062592 0
vt 0.04268610104918 0.001797914505 0
vt 0.08485163748264 0.00153768062592 0
vt 0.08485163748264 0.001797914505 0
vt 0.00052056222921 0 0
vt 0.00052056222921 0.49900734424591 0
vt 0.00026028111461 0.49900734424591 0
vt 0.00026028111461 0 0
vt 0.00026028111461 0.99801456928253 0
vt 0.00052056222921 0.99801456928253 0
vt 0.04268610104918 0 0
vt 0.04268610104918 0.00026035308838 0
vt 0.00052056222921 0.00026035308838 0
vt 0.08485163748264 0 0
vt 0.08485163748264 0.00026035308838 0
vt 0 0.49900734424591 0
vt 0 0 0
vt 0 0.99801456928253 0
vt 0.49952787160873 0.00307536125183 0
vt 0.00052056222921 0.04524087905884 0
vt 0.99853515625 0.04524087905884 0
vt 0.00052056222921 0.00307536125183 0
vt 0.99853515625 0.00307536125183 0
vt 0.99853515625 0.08740639686584 0
vt 0.49952787160873 0.08740639686584 0
vt 0.00052056222921 0.08740639686584 0
# 36 texture coordinates

o object_91
usemtl Default
f 6/3/1 8/2/1 5/1/1
f 8/2/1 2/4/1 5/1/1
f 6/3/1 1/5/1 8/2/1
f 7/7/1 3/6/1 6/3/1
f 7/7/1 5/1/1 4/8/1
f 6/3/1 5/1/1 7/7/1
f 11/12/2 6/11/2 3/10/2 9/9/2
f 6/11/2 11/12/2 10/14/2 1/13/2
f 12/18/3 13/17/3 7/16/3 4/15/3
f 3/20/3 7/16/3 13/17/3 9/19/3
f 2/15/4 14/23/4 15/22/4 5/21/4
f 12/25/4 4/24/4 5/21/4 15/22/4
f 1/18/5 10/27/5 16/26/5 8/17/5
f 14/28/5 2/19/5 8/17/5 16/26/5
f 11/31/6 15/30/6 16/29/6
f 16/29/6 15/30/6 14/32/6
f 11/31/6 16/29/6 10/33/6
f 13/35/6 11/31/6 9/34/6
f 13/35/6 12/36/6 15/30/6
f 11/31/6 13/35/6 15/30/6

v 778.93310546875 3.90625 -649.2373046875
v 778.93310546875 559.16339111328125 -649.2373046875
v 812.309814453125 3.90625 -616.3602294921875
v 812.309814453125 559.16339111328125 -616.3602294921875
v 795.6214599609375 559.16339111328125 -632.79876708984375
v 795.6214599609375 3.90625 -632.79876708984375
v 778.93310546875 281.53482055664062 -649.2373046875
v 812.309814453125 281.53482055664062 -616.3602294921875
v 812.411376953125 3.90625 -616.4632568359375
v 779.0345458984375 3.90625 -649.34027099609375
v 795.7230224609375 3.90625 -632.9017333984375
v 812.411376953125 559.16339111328125 -616.4632568359375
v 812.411376953125 281.53482055664062 -616.4632568359375
v 779.0345458984375 559.16339111328125 -649.34027099609375
v 795.7230224609375 559.16339111328125 -632.9017333984375
v 779.0345458984375 281.53482055664062 -649.34027099609375
# 16 vertices

# 0 normal

# 0 texture coordinate

o object_62
usemtl Default
f 23/2/1 17/5/1 22/3/1
f 23/2/1 21/1/1 18/4/1
f 24/7/1 23/2/1 22/3/1 19/6/1
f 23/2/1 24/7/1 21/1/1
f 24/7/1 20/8/1 21/1/1
f 19/10/2 22/11/2 27/12/2 25/9/2
f 26/14/2 27/12/2 22/11/2 17/13/2
f 28/18/5 20/15/5 24/16/5 29/17/5
f 19/20/5 25/19/5 29/17/5 24/16/5
f 30/23/4 18/15/4 21/21/4 31/22/4
f 20/24/4 28/25/4 31/22/4 21/21/4
f 17/18/3 23/17/3 32/26/3 26/27/3
f 30/28/3 32/26/3 23/17/3 18/19/3
f 32/29/6 27/31/6 26/33/6
f 32/29/6 30/32/6 31/30/6
f 31/30/6 27/31/6 32/29/6
f 27/31/6 31/30/6 29/35/6
f 29/35/6 31/30/6 28/36/6
f 25/34/6 27/31/6 29/35/6

