# WaveFront *.obj file (generated by CINEMA 4D)

mtllib ./12.mtl

v -271.45040893554688 3.90625 471.6090087890625
v -271.45040893554688 559.16339111328125 471.6090087890625
v -304.82708740234375 3.90625 438.73202514648438
v -304.82708740234375 559.16339111328125 438.73202514648438
v -288.13876342773438 559.16339111328125 455.1705322265625
v -288.13876342773438 3.90625 455.1705322265625
v -304.82708740234375 281.53482055664062 438.73202514648438
v -271.45040893554688 281.53482055664062 471.6090087890625
v -304.72564697265625 3.90625 438.62890625
v -271.34890747070312 3.90625 471.50601196289062
v -288.03729248046875 3.90625 455.06753540039062
v -304.72564697265625 559.16339111328125 438.62890625
v -304.72564697265625 281.53482055664062 438.62890625
v -271.34890747070312 559.16339111328125 471.50601196289062
v -288.03729248046875 559.16339111328125 455.06753540039062
v -271.34890747070312 281.53482055664062 471.50601196289062
# 16 vertices

vn -0.70175850391388 0 0.7124148607254
vn 0 -1 0
vn -0.7124148607254 0 -0.70175850391388
vn 0 1 0
vn 0.7124148607254 0 0.70175850391388
vn 0.70175850391388 0 -0.7124148607254
# 6 normals

vt 0.99853515625 0.50127738714218 0
vt 0.99853515625 0.54344290494919 0
vt 0.49952787160873 0.50127738714218 0
vt 0.00052056222921 0.54344290494919 0
vt 0.00052056222921 0.50127738714218 0
vt 0.49952787160873 0.58560848236084 0
vt 0.00052056222921 0.58560848236084 0
vt 0.99853515625 0.58560848236084 0
vt 0.00052056222921 0.001797914505 0
vt 0.00052056222921 0.00153768062592 0
vt 0.04268610104918 0.00153768062592 0
vt 0.04268610104918 0.001797914505 0
vt 0.08485163748264 0.00153768062592 0
vt 0.08485163748264 0.001797914505 0
vt 0.00052056222921 0 0
vt 0.00052056222921 0.49900734424591 0
vt 0.00026028111461 0.49900734424591 0
vt 0.00026028111461 0 0
vt 0.00026028111461 0.99801456928253 0
vt 0.00052056222921 0.99801456928253 0
vt 0.04268610104918 0 0
vt 0.04268610104918 0.00026035308838 0
vt 0.00052056222921 0.00026035308838 0
vt 0.08485163748264 0 0
vt 0.08485163748264 0.00026035308838 0
vt 0 0.49900734424591 0
vt 0 0 0
vt 0 0.99801456928253 0
vt 0.99853515625 0.04524087905884 0
vt 0.99853515625 0.00307536125183 0
vt 0.49952787160873 0.00307536125183 0
vt 0.00052056222921 0.00307536125183 0
vt 0.00052056222921 0.04524087905884 0
vt 0.00052056222921 0.08740639686584 0
vt 0.49952787160873 0.08740639686584 0
vt 0.99853515625 0.08740639686584 0
# 36 texture coordinates

o object_80
usemtl Mat
f 8/3/1 6/2/1 1/1/1
f 8/3/1 2/5/1 5/4/1
f 5/4/1 6/2/1 8/3/1
f 5/4/1 4/7/1 7/6/1 6/2/1
f 3/8/1 6/2/1 7/6/1
f 11/12/2 6/11/2 3/10/2 9/9/2
f 6/11/2 11/12/2 10/14/2 1/13/2
f 12/18/3 13/17/3 7/16/3 4/15/3
f 3/20/3 7/16/3 13/17/3 9/19/3
f 2/15/4 14/23/4 15/22/4 5/21/4
f 12/25/4 4/24/4 5/21/4 15/22/4
f 1/18/5 10/27/5 16/26/5 8/17/5
f 14/28/5 2/19/5 8/17/5 16/26/5
f 16/31/6 10/30/6 11/29/6
f 16/31/6 15/33/6 14/32/6
f 15/33/6 16/31/6 11/29/6
f 15/33/6 11/29/6 13/35/6 12/34/6
f 9/36/6 13/35/6 11/29/6

v -329.28192138671875 3.90625 463.55844116210938
v -329.28192138671875 559.16339111328125 463.55844116210938
v -295.90524291992188 3.90625 496.435546875
v -295.90524291992188 559.16339111328125 496.435546875
v -312.59359741210938 559.16339111328125 479.99703979492188
v -312.59359741210938 3.90625 479.99703979492188
v -329.28192138671875 281.53482055664062 463.55844116210938
v -295.90524291992188 281.53482055664062 496.435546875
v -295.80380249023438 3.90625 496.33255004882812
v -329.18048095703125 3.90625 463.4554443359375
v -312.49212646484375 3.90625 479.89404296875
v -295.80380249023438 559.16339111328125 496.33255004882812
v -295.80380249023438 281.53482055664062 496.33255004882812
v -329.18048095703125 559.16339111328125 463.4554443359375
v -312.49212646484375 559.16339111328125 479.89404296875
v -329.18048095703125 281.53482055664062 463.4554443359375
# 16 vertices

# 0 normal

# 0 texture coordinate

o object_73
usemtl Mat
f 23/31/1 17/30/1 22/29/1
f 23/31/1 21/33/1 18/32/1
f 24/35/1 23/31/1 22/29/1
f 23/31/1 24/35/1 21/33/1
f 24/35/1 20/34/1 21/33/1
f 19/36/1 24/35/1 22/29/1
f 19/10/2 22/11/2 27/12/2 25/9/2
f 26/14/2 27/12/2 22/11/2 17/13/2
f 28/18/5 20/15/5 24/16/5 29/17/5
f 19/20/5 25/19/5 29/17/5 24/16/5
f 18/15/4 21/21/4 31/22/4 30/23/4
f 28/25/4 31/22/4 21/21/4 20/24/4
f 17/18/3 23/17/3 32/26/3 26/27/3
f 30/28/3 32/26/3 23/17/3 18/19/3
f 32/3/6 27/2/6 26/1/6
f 32/3/6 30/5/6 31/4/6
f 29/6/6 27/2/6 32/3/6
f 32/3/6 31/4/6 29/6/6
f 29/6/6 31/4/6 28/7/6
f 25/8/6 27/2/6 29/6/6

