# WaveFront *.obj file (generated by CINEMA 4D)

mtllib ./2.mtl

v 467.68646240234375 3.90625 -639.09228515625
v 467.68646240234375 559.16339111328125 -639.09228515625
v 434.30978393554688 3.90625 -671.9693603515625
v 434.30978393554688 559.16339111328125 -671.9693603515625
v 450.99810791015625 559.16339111328125 -655.53082275390625
v 450.99810791015625 3.90625 -655.53082275390625
v 434.30978393554688 281.53482055664062 -671.9693603515625
v 467.68646240234375 281.53482055664062 -639.09228515625
v 434.41122436523438 3.90625 -672.0723876953125
v 467.78802490234375 3.90625 -639.1953125
v 451.09957885742188 3.90625 -655.63385009765625
v 434.41122436523438 559.16339111328125 -672.0723876953125
v 434.41122436523438 281.53482055664062 -672.0723876953125
v 467.78802490234375 559.16339111328125 -639.1953125
v 451.09957885742188 559.16339111328125 -655.63385009765625
v 467.78802490234375 281.53482055664062 -639.1953125
# 16 vertices

vn -0.70175850391388 0 0.7124148607254
vn 0 -1 0
vn -0.7124148607254 0 -0.70175850391388
vn 0 1 0
vn 0.7124148607254 0 0.70175850391388
vn 0.70175850391388 0 -0.7124148607254
# 6 normals

vt 0.99853515625 0.50127738714218 0
vt 0.99853515625 0.54344290494919 0
vt 0.49952787160873 0.50127738714218 0
vt 0.00052056222921 0.54344290494919 0
vt 0.00052056222921 0.50127738714218 0
vt 0.49952787160873 0.58560848236084 0
vt 0.00052056222921 0.58560848236084 0
vt 0.99853515625 0.58560848236084 0
vt 0.00052056222921 0.001797914505 0
vt 0.00052056222921 0.00153768062592 0
vt 0.04268610104918 0.00153768062592 0
vt 0.04268610104918 0.001797914505 0
vt 0.08485163748264 0.00153768062592 0
vt 0.08485163748264 0.001797914505 0
vt 0.00052056222921 0 0
vt 0.00052056222921 0.49900734424591 0
vt 0.00026028111461 0.49900734424591 0
vt 0.00026028111461 0 0
vt 0.00026028111461 0.99801456928253 0
vt 0.00052056222921 0.99801456928253 0
vt 0.04268610104918 0 0
vt 0.04268610104918 0.00026035308838 0
vt 0.00052056222921 0.00026035308838 0
vt 0.08485163748264 0 0
vt 0.08485163748264 0.00026035308838 0
vt 0 0.49900734424591 0
vt 0 0 0
vt 0 0.99801456928253 0
vt 0.49952787160873 0.00307536125183 0
vt 0.00052056222921 0.04524087905884 0
vt 0.99853515625 0.04524087905884 0
vt 0.00052056222921 0.00307536125183 0
vt 0.99853515625 0.00307536125183 0
vt 0.99853515625 0.08740639686584 0
vt 0.49952787160873 0.08740639686584 0
vt 0.00052056222921 0.08740639686584 0
# 36 texture coordinates

o object_90
usemtl Default
f 8/3/1 6/2/1 1/1/1
f 8/3/1 2/5/1 5/4/1
f 7/6/1 6/2/1 8/3/1
f 8/3/1 5/4/1 7/6/1
f 7/6/1 5/4/1 4/7/1
f 3/8/1 6/2/1 7/6/1
f 11/12/2 6/11/2 3/10/2 9/9/2
f 6/11/2 11/12/2 10/14/2 1/13/2
f 12/18/3 13/17/3 7/16/3 4/15/3
f 3/20/3 7/16/3 13/17/3 9/19/3
f 2/15/4 14/23/4 15/22/4 5/21/4
f 12/25/4 4/24/4 5/21/4 15/22/4
f 1/18/5 10/27/5 16/26/5 8/17/5
f 14/28/5 2/19/5 8/17/5 16/26/5
f 11/31/6 15/30/6 16/29/6
f 16/29/6 15/30/6 14/32/6
f 11/31/6 16/29/6 10/33/6
f 13/35/6 11/31/6 9/34/6
f 13/35/6 12/36/6 15/30/6
f 11/31/6 13/35/6 15/30/6

v 409.85494995117188 3.90625 -647.142822265625
v 409.85494995117188 559.16339111328125 -647.142822265625
v 443.23162841796875 3.90625 -614.26580810546875
v 443.23162841796875 559.16339111328125 -614.26580810546875
v 426.54327392578125 559.16339111328125 -630.704345703125
v 426.54327392578125 3.90625 -630.704345703125
v 409.85494995117188 281.53482055664062 -647.142822265625
v 443.23162841796875 281.53482055664062 -614.26580810546875
v 443.33306884765625 3.90625 -614.3687744140625
v 409.95639038085938 3.90625 -647.245849609375
v 426.64474487304688 3.90625 -630.80731201171875
v 443.33306884765625 559.16339111328125 -614.3687744140625
v 443.33306884765625 281.53482055664062 -614.3687744140625
v 409.95639038085938 559.16339111328125 -647.245849609375
v 426.64474487304688 559.16339111328125 -630.80731201171875
v 409.95639038085938 281.53482055664062 -647.245849609375
# 16 vertices

# 0 normal

# 0 texture coordinate

o object_63
usemtl Default
f 23/3/1 17/1/1 22/2/1
f 23/3/1 21/4/1 18/5/1
f 24/6/1 23/3/1 22/2/1 19/8/1
f 23/3/1 24/6/1 21/4/1
f 24/6/1 20/7/1 21/4/1
f 25/9/2 19/10/2 22/11/2 27/12/2
f 17/13/2 26/14/2 27/12/2 22/11/2
f 28/18/5 20/15/5 24/16/5 29/17/5
f 19/20/5 25/19/5 29/17/5 24/16/5
f 30/23/4 18/15/4 21/21/4 31/22/4
f 20/24/4 28/25/4 31/22/4 21/21/4
f 17/18/3 23/17/3 32/26/3 26/27/3
f 30/28/3 32/26/3 23/17/3 18/19/3
f 32/29/6 27/31/6 26/33/6
f 32/29/6 30/32/6 31/30/6
f 29/35/6 25/34/6 27/31/6 32/29/6
f 32/29/6 31/30/6 29/35/6
f 29/35/6 31/30/6 28/36/6

