# WaveFront *.obj file (generated by CINEMA 4D)

mtllib ./7.mtl

v -84.19461059570312 3.90625 -451.416748046875
v -84.19461059570312 559.16339111328125 -451.416748046875
v -117.57130432128906 3.90625 -484.2938232421875
v -117.57130432128906 559.16339111328125 -484.2938232421875
v -100.88295745849609 559.16339111328125 -467.85525512695312
v -100.88295745849609 3.90625 -467.85525512695312
v -117.57130432128906 281.53482055664062 -484.2938232421875
v -84.19461059570312 281.53482055664062 -451.416748046875
v -117.46985626220703 3.90625 -484.39682006835938
v -84.09316253662109 3.90625 -451.51974487304688
v -100.78150939941406 3.90625 -467.95828247070312
v -117.46985626220703 559.16339111328125 -484.39682006835938
v -117.46985626220703 281.53482055664062 -484.39682006835938
v -84.09316253662109 559.16339111328125 -451.51974487304688
v -100.78150939941406 559.16339111328125 -467.95828247070312
v -84.09316253662109 281.53482055664062 -451.51974487304688
# 16 vertices

vn -0.70175850391388 0 0.7124148607254
vn 0 -1 0
vn -0.7124148607254 0 -0.70175850391388
vn 0 1 0
vn 0.7124148607254 0 0.70175850391388
vn 0.70175850391388 0 -0.7124148607254
# 6 normals

vt 0.99853515625 0.50127738714218 0
vt 0.99853515625 0.54344290494919 0
vt 0.49952787160873 0.50127738714218 0
vt 0.00052056222921 0.54344290494919 0
vt 0.00052056222921 0.50127738714218 0
vt 0.49952787160873 0.58560848236084 0
vt 0.00052056222921 0.58560848236084 0
vt 0.99853515625 0.58560848236084 0
vt 0.00052056222921 0.001797914505 0
vt 0.00052056222921 0.00153768062592 0
vt 0.04268610104918 0.00153768062592 0
vt 0.04268610104918 0.001797914505 0
vt 0.08485163748264 0.00153768062592 0
vt 0.08485163748264 0.001797914505 0
vt 0.00052056222921 0 0
vt 0.00052056222921 0.49900734424591 0
vt 0.00026028111461 0.49900734424591 0
vt 0.00026028111461 0 0
vt 0.00026028111461 0.99801456928253 0
vt 0.00052056222921 0.99801456928253 0
vt 0.04268610104918 0 0
vt 0.04268610104918 0.00026035308838 0
vt 0.00052056222921 0.00026035308838 0
vt 0.08485163748264 0 0
vt 0.08485163748264 0.00026035308838 0
vt 0 0.49900734424591 0
vt 0 0 0
vt 0 0.99801456928253 0
vt 0.49952787160873 0.00307536125183 0
vt 0.00052056222921 0.04524087905884 0
vt 0.99853515625 0.04524087905884 0
vt 0.00052056222921 0.00307536125183 0
vt 0.99853515625 0.00307536125183 0
vt 0.99853515625 0.08740639686584 0
vt 0.49952787160873 0.08740639686584 0
vt 0.00052056222921 0.08740639686584 0
# 36 texture coordinates

o object_84
usemtl Default
f 8/3/1 6/2/1 1/1/1
f 8/3/1 2/5/1 5/4/1
f 5/4/1 6/2/1 8/3/1
f 5/4/1 4/7/1 7/6/1 6/2/1
f 3/8/1 6/2/1 7/6/1
f 11/12/2 6/11/2 3/10/2 9/9/2
f 6/11/2 11/12/2 10/14/2 1/13/2
f 12/18/3 13/17/3 7/16/3 4/15/3
f 3/20/3 7/16/3 13/17/3 9/19/3
f 2/15/4 14/23/4 15/22/4 5/21/4
f 12/25/4 4/24/4 5/21/4 15/22/4
f 1/18/5 10/27/5 16/26/5 8/17/5
f 14/28/5 2/19/5 8/17/5 16/26/5
f 11/31/6 15/30/6 16/29/6
f 16/29/6 15/30/6 14/32/6
f 11/31/6 16/29/6 10/33/6
f 13/35/6 11/31/6 9/34/6
f 13/35/6 12/36/6 15/30/6
f 11/31/6 13/35/6 15/30/6

v -142.02619934082031 3.90625 -459.46728515625
v -142.02619934082031 559.16339111328125 -459.46728515625
v -108.64943695068359 3.90625 -426.5902099609375
v -108.64943695068359 559.16339111328125 -426.5902099609375
v -125.33784484863281 559.16339111328125 -443.02877807617188
v -125.33784484863281 3.90625 -443.02877807617188
v -142.02619934082031 281.53482055664062 -459.46728515625
v -108.64943695068359 281.53482055664062 -426.5902099609375
v -108.54798889160156 3.90625 -426.6932373046875
v -141.9246826171875 3.90625 -459.5703125
v -125.23633575439453 3.90625 -443.13177490234375
v -108.54798889160156 559.16339111328125 -426.6932373046875
v -108.54798889160156 281.53482055664062 -426.6932373046875
v -141.9246826171875 559.16339111328125 -459.5703125
v -125.23633575439453 559.16339111328125 -443.13177490234375
v -141.9246826171875 281.53482055664062 -459.5703125
# 16 vertices

# 0 normal

# 0 texture coordinate

o object_68
usemtl Default
f 23/29/1 17/33/1 22/31/1
f 23/29/1 21/30/1 18/32/1
f 24/35/1 23/29/1 22/31/1
f 23/29/1 24/35/1 21/30/1
f 24/35/1 20/36/1 21/30/1
f 19/34/1 24/35/1 22/31/1
f 19/10/2 22/11/2 27/12/2 25/9/2
f 26/14/2 27/12/2 22/11/2 17/13/2
f 28/18/5 20/15/5 24/16/5 29/17/5
f 19/20/5 25/19/5 29/17/5 24/16/5
f 18/15/4 21/21/4 31/22/4 30/23/4
f 28/25/4 31/22/4 21/21/4 20/24/4
f 17/18/3 23/17/3 32/26/3 26/27/3
f 30/28/3 32/26/3 23/17/3 18/19/3
f 32/3/6 27/2/6 26/1/6
f 32/3/6 30/5/6 31/4/6
f 29/6/6 27/2/6 32/3/6
f 32/3/6 31/4/6 29/6/6
f 29/6/6 31/4/6 28/7/6
f 25/8/6 27/2/6 29/6/6

