# WaveFront *.obj file (generated by CINEMA 4D)

mtllib ./8.mtl

v 102.08063507080078 3.90625 -267.9300537109375
v 102.08063507080078 559.16339111328125 -267.9300537109375
v 68.70388031005859 3.90625 -300.80709838867188
v 68.70388031005859 559.16339111328125 -300.80709838867188
v 85.39222717285156 559.16339111328125 -284.36859130859375
v 85.39222717285156 3.90625 -284.36859130859375
v 68.70388031005859 281.53482055664062 -300.80709838867188
v 102.08063507080078 281.53482055664062 -267.9300537109375
v 68.80538940429688 3.90625 -300.91012573242188
v 102.18208312988281 3.90625 -268.0330810546875
v 85.49373626708984 3.90625 -284.47161865234375
v 68.80538940429688 559.16339111328125 -300.91012573242188
v 68.80538940429688 281.53482055664062 -300.91012573242188
v 102.18208312988281 559.16339111328125 -268.0330810546875
v 85.49373626708984 559.16339111328125 -284.47161865234375
v 102.18208312988281 281.53482055664062 -268.0330810546875
# 16 vertices

vn -0.70175850391388 0 0.7124148607254
vn 0 -1 0
vn -0.7124148607254 0 -0.70175850391388
vn 0 1 0
vn 0.7124148607254 0 0.70175850391388
vn 0.70175850391388 0 -0.7124148607254
# 6 normals

vt 0.00052056222921 0.04524087905884 0
vt 0.49952787160873 0.00307536125183 0
vt 0.99853515625 0.04524087905884 0
vt 0.00052056222921 0.00307536125183 0
vt 0.99853515625 0.00307536125183 0
vt 0.99853515625 0.08740639686584 0
vt 0.49952787160873 0.08740639686584 0
vt 0.00052056222921 0.08740639686584 0
vt 0.00052056222921 0.001797914505 0
vt 0.00052056222921 0.00153768062592 0
vt 0.04268610104918 0.00153768062592 0
vt 0.04268610104918 0.001797914505 0
vt 0.08485163748264 0.00153768062592 0
vt 0.08485163748264 0.001797914505 0
vt 0.00052056222921 0 0
vt 0.00052056222921 0.49900734424591 0
vt 0.00026028111461 0.49900734424591 0
vt 0.00026028111461 0 0
vt 0.00026028111461 0.99801456928253 0
vt 0.00052056222921 0.99801456928253 0
vt 0.04268610104918 0 0
vt 0.04268610104918 0.00026035308838 0
vt 0.00052056222921 0.00026035308838 0
vt 0.08485163748264 0 0
vt 0.08485163748264 0.00026035308838 0
vt 0 0 0
vt 0 0.49900734424591 0
vt 0 0.99801456928253 0
vt 0.49952787160873 0.50127738714218 0
vt 0.00052056222921 0.54344290494919 0
vt 0.99853515625 0.54344290494919 0
vt 0.00052056222921 0.50127738714218 0
vt 0.99853515625 0.50127738714218 0
vt 0.99853515625 0.58560848236084 0
vt 0.49952787160873 0.58560848236084 0
vt 0.00052056222921 0.58560848236084 0
# 36 texture coordinates

o object_87
usemtl Default
f 6/3/1 8/2/1 5/1/1
f 8/2/1 2/4/1 5/1/1
f 6/3/1 1/5/1 8/2/1
f 7/7/1 3/6/1 6/3/1
f 7/7/1 5/1/1 4/8/1
f 6/3/1 5/1/1 7/7/1
f 11/12/2 6/11/2 3/10/2 9/9/2
f 6/11/2 11/12/2 10/14/2 1/13/2
f 12/18/3 13/17/3 7/16/3 4/15/3
f 3/20/3 7/16/3 13/17/3 9/19/3
f 2/15/4 14/23/4 15/22/4 5/21/4
f 12/25/4 4/24/4 5/21/4 15/22/4
f 16/27/5 8/17/5 1/18/5 10/26/5
f 8/17/5 16/27/5 14/28/5 2/19/5
f 11/31/6 15/30/6 16/29/6
f 16/29/6 15/30/6 14/32/6
f 11/31/6 16/29/6 10/33/6
f 13/35/6 11/31/6 9/34/6
f 13/35/6 12/36/6 15/30/6
f 11/31/6 13/35/6 15/30/6

v 44.24905014038086 3.90625 -275.98062133789062
v 44.24905014038086 559.16339111328125 -275.98062133789062
v 60.93739700317383 3.90625 -259.54208374023438
v 77.62574768066406 3.90625 -243.10356140136719
v 77.62574768066406 559.16339111328125 -243.10356140136719
v 60.93739700317383 559.16339111328125 -259.54208374023438
v 44.24905014038086 281.53482055664062 -275.98062133789062
v 77.62574768066406 281.53482055664062 -243.10356140136719
v 77.72724914550781 3.90625 -243.20655822753906
v 44.35049819946289 3.90625 -276.08364868164062
v 61.03884506225586 3.90625 -259.64508056640625
v 77.72724914550781 559.16339111328125 -243.20655822753906
v 77.72724914550781 281.53482055664062 -243.20655822753906
v 44.35049819946289 559.16339111328125 -276.08364868164062
v 61.03884506225586 559.16339111328125 -259.64508056640625
v 44.35049819946289 281.53482055664062 -276.08364868164062
# 16 vertices

# 0 normal

# 0 texture coordinate

o object_67
usemtl Default
f 23/29/1 17/33/1 19/31/1
f 23/29/1 22/30/1 18/32/1
f 22/30/1 23/29/1 19/31/1
f 19/31/1 24/35/1 22/30/1
f 24/35/1 21/36/1 22/30/1
f 20/34/1 24/35/1 19/31/1
f 20/15/2 19/21/2 27/22/2 25/23/2
f 26/25/2 27/22/2 19/21/2 17/24/2
f 28/18/5 21/15/5 24/16/5 29/17/5
f 20/20/5 25/19/5 29/17/5 24/16/5
f 18/10/4 22/11/4 31/12/4 30/9/4
f 28/14/4 31/12/4 22/11/4 21/13/4
f 32/27/3 26/26/3 17/18/3 23/17/3
f 23/17/3 18/19/3 30/28/3 32/27/3
f 32/2/6 27/3/6 26/5/6
f 32/2/6 30/4/6 31/1/6
f 29/7/6 27/3/6 32/2/6
f 32/2/6 31/1/6 29/7/6
f 29/7/6 31/1/6 28/8/6
f 25/6/6 27/3/6 29/7/6

