# WaveFront *.obj file (generated by CINEMA 4D)

mtllib ./9.mtl

v -639.54803466796875 3.90625 -632.8089599609375
v -639.54803466796875 559.16339111328125 -632.8089599609375
v -672.92474365234375 3.90625 -665.68603515625
v -672.92474365234375 559.16339111328125 -665.68603515625
v -656.23638916015625 559.16339111328125 -649.24749755859375
v -656.23638916015625 3.90625 -649.24749755859375
v -672.92474365234375 281.53482055664062 -665.68603515625
v -639.54803466796875 281.53482055664062 -632.8089599609375
v -672.8232421875 3.90625 -665.7890625
v -639.446533203125 3.90625 -632.9119873046875
v -656.1348876953125 3.90625 -649.35052490234375
v -672.8232421875 559.16339111328125 -665.7890625
v -672.8232421875 281.53482055664062 -665.7890625
v -639.446533203125 559.16339111328125 -632.9119873046875
v -656.1348876953125 559.16339111328125 -649.35052490234375
v -639.446533203125 281.53482055664062 -632.9119873046875
# 16 vertices

vn -0.70175850391388 0 0.7124148607254
vn 0 -1 0
vn -0.7124148607254 0 -0.70175850391388
vn 0 1 0
vn 0.7124148607254 0 0.70175850391388
vn 0.70175850391388 0 -0.7124148607254
# 6 normals

vt 0.00052056222921 0.04524087905884 0
vt 0.49952787160873 0.00307536125183 0
vt 0.99853515625 0.04524087905884 0
vt 0.00052056222921 0.00307536125183 0
vt 0.99853515625 0.00307536125183 0
vt 0.99853515625 0.08740639686584 0
vt 0.49952787160873 0.08740639686584 0
vt 0.00052056222921 0.08740639686584 0
vt 0.00052056222921 0.001797914505 0
vt 0.00052056222921 0.00153768062592 0
vt 0.04268610104918 0.00153768062592 0
vt 0.04268610104918 0.001797914505 0
vt 0.08485163748264 0.00153768062592 0
vt 0.08485163748264 0.001797914505 0
vt 0.00052056222921 0 0
vt 0.00052056222921 0.49900734424591 0
vt 0.00026028111461 0.49900734424591 0
vt 0.00026028111461 0 0
vt 0.00026028111461 0.99801456928253 0
vt 0.00052056222921 0.99801456928253 0
vt 0.04268610104918 0 0
vt 0.04268610104918 0.00026035308838 0
vt 0.00052056222921 0.00026035308838 0
vt 0.08485163748264 0 0
vt 0.08485163748264 0.00026035308838 0
vt 0 0.49900734424591 0
vt 0 0 0
vt 0 0.99801456928253 0
vt 0.99853515625 0.54344290494919 0
vt 0.99853515625 0.50127738714218 0
vt 0.49952787160873 0.50127738714218 0
vt 0.00052056222921 0.50127738714218 0
vt 0.00052056222921 0.54344290494919 0
vt 0.49952787160873 0.58560848236084 0
vt 0.00052056222921 0.58560848236084 0
vt 0.99853515625 0.58560848236084 0
# 36 texture coordinates

o object_81
usemtl Default
f 6/3/1 8/2/1 5/1/1
f 8/2/1 2/4/1 5/1/1
f 6/3/1 1/5/1 8/2/1
f 7/7/1 3/6/1 6/3/1
f 7/7/1 5/1/1 4/8/1
f 6/3/1 5/1/1 7/7/1
f 11/12/2 6/11/2 3/10/2 9/9/2
f 6/11/2 11/12/2 10/14/2 1/13/2
f 12/18/3 13/17/3 7/16/3 4/15/3
f 3/20/3 7/16/3 13/17/3 9/19/3
f 2/15/4 14/23/4 15/22/4 5/21/4
f 12/25/4 4/24/4 5/21/4 15/22/4
f 1/18/5 10/27/5 16/26/5 8/17/5
f 14/28/5 2/19/5 8/17/5 16/26/5
f 16/31/6 10/30/6 11/29/6
f 16/31/6 15/33/6 14/32/6
f 13/34/6 16/31/6 11/29/6
f 16/31/6 13/34/6 15/33/6
f 13/34/6 12/35/6 15/33/6
f 9/36/6 13/34/6 11/29/6

v -697.37957763671875 3.90625 -640.85955810546875
v -697.37957763671875 559.16339111328125 -640.85955810546875
v -664.00286865234375 3.90625 -607.98248291015625
v -664.00286865234375 559.16339111328125 -607.98248291015625
v -680.69122314453125 559.16339111328125 -624.4210205078125
v -680.69122314453125 3.90625 -624.4210205078125
v -697.37957763671875 281.53482055664062 -640.85955810546875
v -664.00286865234375 281.53482055664062 -607.98248291015625
v -663.9013671875 3.90625 -608.08551025390625
v -697.278076171875 3.90625 -640.9625244140625
v -680.58978271484375 3.90625 -624.5240478515625
v -663.9013671875 559.16339111328125 -608.08551025390625
v -663.9013671875 281.53482055664062 -608.08551025390625
v -697.278076171875 559.16339111328125 -640.9625244140625
v -680.58978271484375 559.16339111328125 -624.5240478515625
v -697.278076171875 281.53482055664062 -640.9625244140625
# 16 vertices

# 0 normal

# 0 texture coordinate

o object_72
usemtl Default
f 23/31/1 17/30/1 22/29/1
f 23/31/1 21/33/1 18/32/1
f 24/34/1 23/31/1 22/29/1
f 23/31/1 24/34/1 21/33/1
f 24/34/1 20/35/1 21/33/1
f 19/36/1 24/34/1 22/29/1
f 25/9/2 19/10/2 22/11/2 27/12/2
f 17/13/2 26/14/2 27/12/2 22/11/2
f 28/18/5 20/15/5 24/16/5 29/17/5
f 19/20/5 25/19/5 29/17/5 24/16/5
f 31/22/4 30/23/4 18/15/4 21/21/4
f 21/21/4 20/24/4 28/25/4 31/22/4
f 17/18/3 23/17/3 32/26/3 26/27/3
f 30/28/3 32/26/3 23/17/3 18/19/3
f 32/2/6 27/3/6 26/5/6
f 32/2/6 30/4/6 31/1/6
f 29/7/6 27/3/6 32/2/6
f 32/2/6 31/1/6 29/7/6
f 29/7/6 31/1/6 28/8/6
f 25/6/6 27/3/6 29/7/6

